<svg width="36" height="36" viewBox="0 0 36 36" fill="none" xmlns="http://www.w3.org/2000/svg">
<path d="M6.36393 18.0001L0.098273 1.89076C-0.337794 0.769573 0.755631 -0.302644 1.83728 0.0784659L2.00775 0.150926L35.2346 16.7618C36.1913 17.2402 36.2512 18.5497 35.414 19.1318L35.2346 19.2381L2.00775 35.8491C0.931604 36.3871 -0.237448 35.3978 0.0419165 34.2856L0.098273 34.1092L6.36393 18.0001L0.098273 1.89076L6.36393 18.0001ZM3.97986 4.2321L8.7959 16.6147L21.0301 16.6158C21.731 16.6158 22.3102 17.1365 22.4018 17.8122L22.4145 18.0001C22.4145 18.7007 21.8936 19.2798 21.2178 19.3716L21.0301 19.3843L8.7959 19.3832L3.97986 31.7678L31.5198 18.0001L3.97986 4.2321Z" fill="white"/>
</svg>
